<?xml version="1.0" encoding="utf-8"?>
<!-- Generator: Adobe Illustrator 16.0.0, SVG Export Plug-In . SVG Version: 6.00 Build 0)  -->
<!DOCTYPE svg PUBLIC "-//W3C//DTD SVG 1.1//EN" "http://www.w3.org/Graphics/SVG/1.1/DTD/svg11.dtd">
<svg version="1.1" id="Layer_1" xmlns="http://www.w3.org/2000/svg" xmlns:xlink="http://www.w3.org/1999/xlink" x="0px" y="0px"
	 width="120px" height="120px" viewBox="0 0 120 120" enable-background="new 0 0 120 120" xml:space="preserve">
<title>D7D43FD3-25E0-4154-BD09-BD9BB5B3E579</title>
<desc>Created with sketchtool.</desc>
<g id="Symbols">
	<g id="candidate-top_bar_dash_new-black" transform="translate(-43.000000, -20.000000)">
		<g id="top_bar_dash_new">
			<g id="logo_original" transform="translate(28.000000, 9.000000)">
				<g id="Group">
					<g id="Logo" transform="translate(15.052190, 11.904757)">
						<g id="Image" transform="translate(0.604866, -0.000000)">
							<path id="Shape" fill="#FFFFFF" d="M82.897,63.511c0,11.53-7.721,21.249-18.836,23.386
								c-7.617,1.469-14.231-0.838-19.677-6.172c-10.288-10.062-9.343-27.275,1.914-36.262c11.768-9.388,29.062-4.58,34.835,9.678
								C82.324,57.155,82.978,60.271,82.897,63.511L82.897,63.511z"/>
							<path id="Shape_1_" fill="#FFFFFF" d="M29.065,86.613c0.039-5.542,1.642-9.696,4.866-13.221
								c1.253-1.368,1.295-1.345,1.994,0.323c3.574,8.517,9.754,14.078,18.955,16.257c1.952,0.449,3.947,0.53,5.938,0.491
								c1.807-0.042,1.807-0.022,1.172,1.73c-2.528,6.902-8.996,11.549-16.003,11.487c-7.126-0.058-13.617-4.932-15.938-11.956
								C29.372,89.788,29.003,87.835,29.065,86.613L29.065,86.613z"/>
							<path id="Shape_2_" fill="#FFFFFF" d="M93.907,24.199c-0.411,8.594-4.396,15.865-12.429,20.919
								c-1.007,0.63-1.66,0.753-2.544-0.285c-1.769-2.12-3.967-3.789-6.41-5.114c-0.7-0.385-0.838-0.73-0.45-1.465
								c2.998-5.746,5.135-11.837,7.206-17.948c1.829-5.314,4.15-10.407,8.074-14.604c0.327-0.346,0.696-0.672,1.026-1.018
								c0.515-0.53,0.884-0.469,1.13,0.223C91.794,10.955,93.762,17.028,93.907,24.199L93.907,24.199z"/>
							<path id="Shape_3_" fill="#FFFFFF" d="M88.196,4.114c-0.369,0.407-0.515,0.588-0.699,0.73
								c-3.84,3.036-6.487,6.926-8.562,11.245c-2.468,5.135-4.643,10.389-7.418,15.4c-0.96,1.771-2.029,3.482-3.201,5.111
								c-0.473,0.653-0.926,0.899-1.81,0.672c-2.729-0.711-5.523-1.099-8.359-0.729c-1.068,0.142-1.253-0.389-1.396-1.307
								c-1.706-11.303,4.62-23.24,17.191-27.783c4.255-1.529,8.628-2.524,13.062-3.339C87.293,4.072,87.601,4.114,88.196,4.114
								L88.196,4.114z"/>
							<path id="Shape_4_" fill="#FFFFFF" d="M18.262,63.166c0.203-6.783,2.729-12.794,8.624-17.191
								c2.321-1.733,4.992-2.689,7.867-3.14c0.78-0.122,1.395,0.043,1.972,0.611c0.964,0.938,2.586,1.629,2.874,2.71
								c0.289,1.099-1.272,2.201-1.929,3.362c-3.205,5.661-4.312,11.714-3.409,18.109c0.1,0.791-0.123,1.222-0.699,1.69
								c-3.225,2.63-5.442,5.927-6.719,9.858c-0.469,1.426-0.572,1.464-1.722,0.365C20.479,75.165,18.385,69.745,18.262,63.166
								L18.262,63.166z"/>
							<path id="Shape_5_" fill="#FFFFFF" d="M100.418,64.937c-0.207,6.987-2.383,13.121-8.112,17.641
								c-2.549,2.018-2.61,1.956-3.595-0.957c-0.822-2.444-2.074-4.624-3.881-6.499c-0.576-0.592-0.681-1.118-0.392-1.914
								c2.897-8.171,2.282-16.053-1.973-23.651c-0.43-0.772-0.308-1.118,0.431-1.567c1.272-0.772,2.525-1.606,3.697-2.545
								c0.719-0.572,1.314-0.634,2.117-0.288c5.812,2.549,9.036,7.172,10.785,12.979C100.13,60.333,100.48,62.616,100.418,64.937
								L100.418,64.937z"/>
							<path id="Shape_6_" fill="#FFFFFF" d="M86.391,88.811c0,6.092-4.851,12.079-11.914,13.32
								c-4.213,0.754-7.948-0.469-11.192-3.216c-0.576-0.488-0.699-0.896-0.269-1.568c1.338-2.018,2.236-4.239,2.752-6.58
								c0.166-0.733,0.534-1.041,1.215-1.222c6.364-1.856,11.253-5.646,14.804-11.122c0.6-0.919,0.945-0.857,1.545-0.062
								C85.361,81.132,86.429,84.188,86.391,88.811L86.391,88.811z"/>
							<path id="Shape_7_" fill="#FFFFFF" d="M40.464,11.343c-0.104,5.319,2.198,9.777,4.742,14.158
								c2.076,3.562,4.128,7.148,5.588,11.019c0.389,1.042,0.266,1.61-0.864,2.061c-2.544,1.019-4.805,2.501-6.799,4.358
								c-0.737,0.672-1.229,0.588-1.972,0.038c-6.96-5.05-9.589-13.217-6.775-21.245C35.718,17.904,37.873,14.541,40.464,11.343
								L40.464,11.343z"/>
							<path id="Shape_8_" fill="#FFFFFF" d="M59.461,114.091c-4.27,0-8.01-2.182-9.243-5.522c-0.78-2.095-0.45-2.036,1.214-2.486
								c3.103-0.814,5.812-2.382,8.133-4.581c0.677-0.63,1.088-0.653,1.787-0.02c1.891,1.688,4.132,2.871,6.614,3.463
								c1.068,0.246,1.291,0.772,1.229,1.711c-0.185,2.202-1.252,3.893-2.955,5.215C64.269,113.438,61.989,114.153,59.461,114.091
								L59.461,114.091z"/>
							<path id="Shape_9_" fill="#FFFFFF" d="M53.093,35.034c-2.629-5.013-6.076-9.29-8.993-13.891
								c-1.706-2.689-2.879-5.622-3.286-8.8c-0.062-0.45-0.312-1.019,0.185-1.326c0.411-0.242,0.818,0.165,1.211,0.327
								c4.373,2.098,8.627,4.358,11.914,8.024c0.902,0.999,1.129,1.896,0.614,3.201c-1.295,3.34-1.541,6.864-1.375,10.427
								c0.019,0.53,0.019,1.062,0.019,1.568C53.404,34.649,53.301,34.729,53.093,35.034L53.093,35.034z"/>
						</g>
					</g>
				</g>
			</g>
		</g>
	</g>
</g>
</svg>
